#N canvas 87 201 496 539 10;
#X obj 36 34 pddom.from~ \$1 \$2;
#X obj 36 474 pddom.to~ \$1 \$2;
#X obj 356 344 osc~;
#X obj 176 425 *~;
#X obj 186 34 r radio;
#X obj 356 234 mtof;
#X obj 176 395 vline~;
#X msg 176 365 \$1 1 0 \, 0 \$2 1;
#X obj 246 274 pack f f;
#X obj 146 305 list append;
#X obj 306 234 t b a;
#X floatatom 216 144 5 0 0 0 - - -;
#X obj 146 335 t b a;
#X floatatom 306 144 5 0 0 0 - - -;
#X floatatom 346 144 5 0 0 0 - - -;
#X floatatom 386 144 5 0 0 0 - - -;
#N canvas 30 22 408 367 banger 0;
#X obj 24 31 inlet;
#X obj 144 291 outlet;
#X obj 24 251 metro;
#X obj 84 31 inlet;
#X obj 144 31 inlet;
#X obj 24 191 spigot;
#X obj 144 251 delay;
#X obj 174 151 == 0;
#X obj 144 191 spigot;
#X obj 84 211 t a a;
#X obj 24 121 t b b;
#X floatatom 234 144 5 0 0 0 - - -;
#X obj 144 121 t a a a;
#X obj 40 163 t a a;
#X connect 0 0 10 0;
#X connect 2 0 1 0;
#X connect 3 0 9 0;
#X connect 4 0 12 0;
#X connect 5 0 2 0;
#X connect 6 0 1 0;
#X connect 7 0 8 1;
#X connect 8 0 6 0;
#X connect 9 0 2 1;
#X connect 9 1 6 1;
#X connect 10 0 5 0;
#X connect 10 1 8 0;
#X connect 12 0 13 0;
#X connect 12 1 7 0;
#X connect 12 2 11 0;
#X connect 13 0 2 0;
#X connect 13 1 5 1;
#X restore 146 235 pd banger;
#X obj 186 184 route interval run level decay freq;
#X obj 266 144 tgl 15 0 empty empty empty 17 7 0 10 -262144 -1 -1 0
1;
#X obj 216 114 route interval run level decay freq;
#X obj 246 234 * 0.5;
#X obj 186 64 route \$2;
#X connect 0 0 1 0;
#X connect 0 1 16 0;
#X connect 2 0 3 1;
#X connect 3 0 1 0;
#X connect 4 0 21 0;
#X connect 5 0 2 0;
#X connect 6 0 3 0;
#X connect 7 0 6 0;
#X connect 8 0 9 1;
#X connect 9 0 12 0;
#X connect 10 0 8 0;
#X connect 10 1 8 1;
#X connect 12 0 1 1;
#X connect 12 1 7 0;
#X connect 16 0 9 0;
#X connect 17 0 16 1;
#X connect 17 1 16 2;
#X connect 17 2 20 0;
#X connect 17 3 10 0;
#X connect 17 4 5 0;
#X connect 19 0 11 0;
#X connect 19 1 18 0;
#X connect 19 2 13 0;
#X connect 19 3 14 0;
#X connect 19 4 15 0;
#X connect 20 0 8 0;
#X connect 21 0 17 0;
#X connect 21 0 19 0;
