#N canvas 776 29 464 406 10;
#X obj 36 34 pddom.from~ \$1 \$2;
#X obj 36 334 pddom.to~ \$1 \$2;
#X obj 76 224 osc~;
#X obj 76 284 *~;
#X obj 126 254 line~;
#X msg 126 224 \$1 2;
#X obj 76 74 r radio;
#X obj 76 104 route \$1.\$2;
#X obj 76 144 route freq decay;
#X floatatom 88 173 5 0 0 0 - - -;
#X floatatom 140 173 5 0 0 0 - - -;
#X obj 76 194 mtof;
#X obj 126 194 * 0.01;
#X connect 0 0 1 0;
#X connect 2 0 3 0;
#X connect 3 0 1 0;
#X connect 4 0 3 1;
#X connect 5 0 4 0;
#X connect 6 0 7 0;
#X connect 7 0 8 0;
#X connect 8 0 9 0;
#X connect 8 0 11 0;
#X connect 8 1 10 0;
#X connect 8 1 12 0;
#X connect 11 0 2 0;
#X connect 12 0 5 0;
