#N canvas 92 252 877 422 10;
#X declare -path pddom;
#X obj 535 155 pd-dom space;
#X obj 535 195 dac~;
#X obj 295 235 loadbang;
#X msg 295 295 \; pd dsp 1 \, dsp 0;
#X msg 655 115 vis \$1;
#X obj 655 85 hradio 15 1 0 12 empty empty empty 0 -8 0 10 -262144
-1 -1 0;
#X msg 655 155 reset;
#X obj 35 115 netsend;
#X obj 35 235 loadbang;
#X floatatom 35 145 5 0 0 0 - - -, f 5;
#X floatatom 225 115 5 0 0 0 - - -, f 5;
#X obj 35 85 r netsend;
#X msg 535 275 \; netsend send 1 2 3 \, send 4 5 6 \, send 7 8 9;
#X obj 125 115 s netreceive;
#X msg 535 315 \; netsend disconnect;
#X msg 535 235 \; netsend send a b c;
#X obj 125 155 r netreceive;
#X obj 295 85 r netreceive;
#X obj 295 115 route dsp;
#X msg 295 145 \; pd dsp \$1;
#X obj 415 145 s radio;
#X obj 415 85 r netreceive;
#X obj 415 115 route radio;
#X obj 535 85 r netreceive;
#X obj 535 115 route space;
#X msg 35 265 \; netsend connect localhost 8005;
#X obj 125 85 netreceive 8006 0;
#X obj 35 35 declare -path pddom;
#X obj 125 185 print;
#X obj 295 265 del 0;
#X obj 34 317 r pd;
#X obj 34 347 route dsp;
#X obj 34 377 tgl 15 0 empty empty empty 17 7 0 10 -262144 -1 -1 0
1;
#X connect 0 0 1 0;
#X connect 0 0 1 1;
#X connect 2 0 29 0;
#X connect 4 0 0 1;
#X connect 5 0 4 0;
#X connect 6 0 0 1;
#X connect 7 0 9 0;
#X connect 8 0 25 0;
#X connect 11 0 7 0;
#X connect 16 0 28 0;
#X connect 17 0 18 0;
#X connect 18 0 19 0;
#X connect 21 0 22 0;
#X connect 22 0 20 0;
#X connect 23 0 24 0;
#X connect 24 0 0 1;
#X connect 26 0 13 0;
#X connect 26 1 10 0;
#X connect 29 0 3 0;
#X connect 30 0 31 0;
#X connect 31 0 32 0;
